<mxfile host="app.diagrams.net" modified="2023-11-14T13:37:55.675Z" agent="Mozilla/5.0 (Windows NT 10.0; Win64; x64) AppleWebKit/537.36 (KHTML, like Gecko) Chrome/119.0.0.0 Safari/537.36" etag="XG5fTcW7SctiBpRM54H3" version="22.1.0" type="device">
  <diagram id="iMqVHChwZm590LHluCaW" name="sequence-list-diagram">
    <mxGraphModel dx="573" dy="322" grid="1" gridSize="10" guides="1" tooltips="1" connect="1" arrows="1" fold="1" page="1" pageScale="1" pageWidth="827" pageHeight="1169" math="0" shadow="0">
      <root>
        <mxCell id="0" />
        <mxCell id="1" parent="0" />
        <mxCell id="4JTWccWHWT9R3Sk7rcSR-3" value="" style="shape=umlLifeline;perimeter=lifelinePerimeter;whiteSpace=wrap;html=1;container=1;dropTarget=0;collapsible=0;recursiveResize=0;outlineConnect=0;portConstraint=eastwest;newEdgeStyle={&quot;curved&quot;:0,&quot;rounded&quot;:0};participant=umlActor;" parent="1" vertex="1">
          <mxGeometry x="90" y="60" width="20" height="500" as="geometry" />
        </mxCell>
        <mxCell id="4JTWccWHWT9R3Sk7rcSR-4" value="Admin/ Teacher" style="text;html=1;align=center;verticalAlign=middle;resizable=0;points=[];autosize=1;strokeColor=none;fillColor=none;" parent="1" vertex="1">
          <mxGeometry x="50" y="30" width="110" height="30" as="geometry" />
        </mxCell>
        <mxCell id="4JTWccWHWT9R3Sk7rcSR-5" value="" style="html=1;points=[[0,0,0,0,5],[0,1,0,0,-5],[1,0,0,0,5],[1,1,0,0,-5]];perimeter=orthogonalPerimeter;outlineConnect=0;targetShapes=umlLifeline;portConstraint=eastwest;newEdgeStyle={&quot;curved&quot;:0,&quot;rounded&quot;:0};" parent="1" vertex="1">
          <mxGeometry x="330" y="140" width="20" height="390" as="geometry" />
        </mxCell>
        <mxCell id="4JTWccWHWT9R3Sk7rcSR-6" value="View" style="shape=umlLifeline;perimeter=lifelinePerimeter;whiteSpace=wrap;html=1;container=1;dropTarget=0;collapsible=0;recursiveResize=0;outlineConnect=0;portConstraint=eastwest;newEdgeStyle={&quot;curved&quot;:0,&quot;rounded&quot;:0};" parent="1" vertex="1">
          <mxGeometry x="290" y="30" width="100" height="110" as="geometry" />
        </mxCell>
        <mxCell id="4JTWccWHWT9R3Sk7rcSR-8" value="" style="endArrow=none;dashed=1;html=1;rounded=0;" parent="1" edge="1">
          <mxGeometry width="50" height="50" relative="1" as="geometry">
            <mxPoint x="339" y="560" as="sourcePoint" />
            <mxPoint x="339" y="530" as="targetPoint" />
          </mxGeometry>
        </mxCell>
        <mxCell id="4JTWccWHWT9R3Sk7rcSR-9" value="" style="html=1;points=[[0,0,0,0,5],[0,1,0,0,-5],[1,0,0,0,5],[1,1,0,0,-5]];perimeter=orthogonalPerimeter;outlineConnect=0;targetShapes=umlLifeline;portConstraint=eastwest;newEdgeStyle={&quot;curved&quot;:0,&quot;rounded&quot;:0};" parent="1" vertex="1">
          <mxGeometry x="640" y="160" width="20" height="290" as="geometry" />
        </mxCell>
        <mxCell id="4JTWccWHWT9R3Sk7rcSR-11" value="StudentController" style="shape=umlLifeline;perimeter=lifelinePerimeter;whiteSpace=wrap;html=1;container=1;dropTarget=0;collapsible=0;recursiveResize=0;outlineConnect=0;portConstraint=eastwest;newEdgeStyle={&quot;curved&quot;:0,&quot;rounded&quot;:0};" parent="1" vertex="1">
          <mxGeometry x="600" y="30" width="100" height="130" as="geometry" />
        </mxCell>
        <mxCell id="4JTWccWHWT9R3Sk7rcSR-12" value="StudentService" style="shape=umlLifeline;perimeter=lifelinePerimeter;whiteSpace=wrap;html=1;container=1;dropTarget=0;collapsible=0;recursiveResize=0;outlineConnect=0;portConstraint=eastwest;newEdgeStyle={&quot;curved&quot;:0,&quot;rounded&quot;:0};" parent="1" vertex="1">
          <mxGeometry x="850" y="30" width="100" height="160" as="geometry" />
        </mxCell>
        <mxCell id="4JTWccWHWT9R3Sk7rcSR-13" value="" style="html=1;points=[[0,0,0,0,5],[0,1,0,0,-5],[1,0,0,0,5],[1,1,0,0,-5]];perimeter=orthogonalPerimeter;outlineConnect=0;targetShapes=umlLifeline;portConstraint=eastwest;newEdgeStyle={&quot;curved&quot;:0,&quot;rounded&quot;:0};" parent="1" vertex="1">
          <mxGeometry x="890" y="190" width="20" height="250" as="geometry" />
        </mxCell>
        <mxCell id="4JTWccWHWT9R3Sk7rcSR-14" value="" style="endArrow=none;dashed=1;html=1;rounded=0;" parent="1" target="4JTWccWHWT9R3Sk7rcSR-13" edge="1">
          <mxGeometry width="50" height="50" relative="1" as="geometry">
            <mxPoint x="900" y="560" as="sourcePoint" />
            <mxPoint x="900" y="410" as="targetPoint" />
          </mxGeometry>
        </mxCell>
        <mxCell id="4JTWccWHWT9R3Sk7rcSR-15" value="StudentRepository" style="shape=umlLifeline;perimeter=lifelinePerimeter;whiteSpace=wrap;html=1;container=1;dropTarget=0;collapsible=0;recursiveResize=0;outlineConnect=0;portConstraint=eastwest;newEdgeStyle={&quot;curved&quot;:0,&quot;rounded&quot;:0};" parent="1" vertex="1">
          <mxGeometry x="1134" y="30" width="110" height="180" as="geometry" />
        </mxCell>
        <mxCell id="4JTWccWHWT9R3Sk7rcSR-16" value="" style="html=1;points=[[0,0,0,0,5],[0,1,0,0,-5],[1,0,0,0,5],[1,1,0,0,-5]];perimeter=orthogonalPerimeter;outlineConnect=0;targetShapes=umlLifeline;portConstraint=eastwest;newEdgeStyle={&quot;curved&quot;:0,&quot;rounded&quot;:0};" parent="1" vertex="1">
          <mxGeometry x="1179" y="210" width="20" height="210" as="geometry" />
        </mxCell>
        <mxCell id="4JTWccWHWT9R3Sk7rcSR-17" value="" style="endArrow=none;dashed=1;html=1;rounded=0;" parent="1" target="4JTWccWHWT9R3Sk7rcSR-16" edge="1">
          <mxGeometry width="50" height="50" relative="1" as="geometry">
            <mxPoint x="1190" y="560" as="sourcePoint" />
            <mxPoint x="1189" y="410" as="targetPoint" />
          </mxGeometry>
        </mxCell>
        <mxCell id="4JTWccWHWT9R3Sk7rcSR-18" value="Database" style="shape=umlLifeline;perimeter=lifelinePerimeter;whiteSpace=wrap;html=1;container=1;dropTarget=0;collapsible=0;recursiveResize=0;outlineConnect=0;portConstraint=eastwest;newEdgeStyle={&quot;curved&quot;:0,&quot;rounded&quot;:0};" parent="1" vertex="1">
          <mxGeometry x="1400" y="30" width="110" height="190" as="geometry" />
        </mxCell>
        <mxCell id="4JTWccWHWT9R3Sk7rcSR-19" value="" style="html=1;points=[[0,0,0,0,5],[0,1,0,0,-5],[1,0,0,0,5],[1,1,0,0,-5]];perimeter=orthogonalPerimeter;outlineConnect=0;targetShapes=umlLifeline;portConstraint=eastwest;newEdgeStyle={&quot;curved&quot;:0,&quot;rounded&quot;:0};" parent="1" vertex="1">
          <mxGeometry x="1445" y="220" width="20" height="160" as="geometry" />
        </mxCell>
        <mxCell id="4JTWccWHWT9R3Sk7rcSR-20" value="" style="endArrow=none;dashed=1;html=1;rounded=0;" parent="1" edge="1">
          <mxGeometry width="50" height="50" relative="1" as="geometry">
            <mxPoint x="1456" y="550" as="sourcePoint" />
            <mxPoint x="1456" y="380" as="targetPoint" />
          </mxGeometry>
        </mxCell>
        <mxCell id="4JTWccWHWT9R3Sk7rcSR-23" value="&lt;font style=&quot;font-size: 12px;&quot;&gt;1.Select the button &quot; Manager the student&quot;&lt;br&gt;in&amp;nbsp;the menu bar&lt;/font&gt;" style="html=1;verticalAlign=bottom;endArrow=block;curved=0;rounded=0;exitX=0.5;exitY=0.208;exitDx=0;exitDy=0;exitPerimeter=0;" parent="1" source="4JTWccWHWT9R3Sk7rcSR-3" edge="1">
          <mxGeometry width="80" relative="1" as="geometry">
            <mxPoint x="103.96153846153857" y="164" as="sourcePoint" />
            <mxPoint x="330" y="164" as="targetPoint" />
          </mxGeometry>
        </mxCell>
        <mxCell id="4JTWccWHWT9R3Sk7rcSR-24" value="&lt;font style=&quot;font-size: 12px;&quot;&gt;2. getAll()&lt;/font&gt;" style="html=1;verticalAlign=bottom;endArrow=block;curved=0;rounded=0;" parent="1" edge="1">
          <mxGeometry width="80" relative="1" as="geometry">
            <mxPoint x="350" y="180" as="sourcePoint" />
            <mxPoint x="640" y="180" as="targetPoint" />
          </mxGeometry>
        </mxCell>
        <mxCell id="4JTWccWHWT9R3Sk7rcSR-25" value="&lt;font style=&quot;font-size: 12px;&quot;&gt;3.findAll()&lt;/font&gt;" style="html=1;verticalAlign=bottom;endArrow=block;curved=0;rounded=0;" parent="1" edge="1">
          <mxGeometry x="0.0026" width="80" relative="1" as="geometry">
            <mxPoint x="660" y="208" as="sourcePoint" />
            <mxPoint x="890" y="208" as="targetPoint" />
            <mxPoint as="offset" />
          </mxGeometry>
        </mxCell>
        <mxCell id="4JTWccWHWT9R3Sk7rcSR-26" value="&lt;font style=&quot;font-size: 12px;&quot;&gt;4.findAll()&lt;/font&gt;" style="html=1;verticalAlign=bottom;endArrow=block;curved=0;rounded=0;" parent="1" edge="1">
          <mxGeometry x="0.0026" width="80" relative="1" as="geometry">
            <mxPoint x="910" y="222" as="sourcePoint" />
            <mxPoint x="1179" y="222" as="targetPoint" />
            <mxPoint as="offset" />
          </mxGeometry>
        </mxCell>
        <mxCell id="4JTWccWHWT9R3Sk7rcSR-27" value="&lt;font style=&quot;font-size: 12px;&quot;&gt;5.excututeQuery()&lt;/font&gt;" style="html=1;verticalAlign=bottom;endArrow=block;curved=0;rounded=0;" parent="1" edge="1">
          <mxGeometry x="0.0026" width="80" relative="1" as="geometry">
            <mxPoint x="1199" y="234.99999999999997" as="sourcePoint" />
            <mxPoint x="1445" y="234.99999999999997" as="targetPoint" />
            <mxPoint as="offset" />
          </mxGeometry>
        </mxCell>
        <mxCell id="4JTWccWHWT9R3Sk7rcSR-29" value="&lt;font style=&quot;font-size: 12px;&quot;&gt;6.Return null&lt;/font&gt;" style="endArrow=open;endSize=12;dashed=1;html=1;rounded=0;" parent="1" edge="1">
          <mxGeometry x="0.0359" y="-10" width="160" relative="1" as="geometry">
            <mxPoint x="1445" y="280" as="sourcePoint" />
            <mxPoint x="1199.0000000000002" y="280" as="targetPoint" />
            <mxPoint as="offset" />
          </mxGeometry>
        </mxCell>
        <mxCell id="4JTWccWHWT9R3Sk7rcSR-30" value="&lt;font style=&quot;font-size: 12px;&quot;&gt;7.Return null&lt;/font&gt;" style="endArrow=open;endSize=12;dashed=1;html=1;rounded=0;exitX=0.25;exitY=0.69;exitDx=0;exitDy=0;exitPerimeter=0;" parent="1" edge="1">
          <mxGeometry x="0.0359" y="-10" width="160" relative="1" as="geometry">
            <mxPoint x="1179" y="290" as="sourcePoint" />
            <mxPoint x="910" y="290" as="targetPoint" />
            <mxPoint as="offset" />
          </mxGeometry>
        </mxCell>
        <mxCell id="4JTWccWHWT9R3Sk7rcSR-31" value="&lt;font style=&quot;font-size: 12px;&quot;&gt;8.Return null&lt;/font&gt;" style="endArrow=open;endSize=12;dashed=1;html=1;rounded=0;" parent="1" edge="1">
          <mxGeometry x="0.0359" y="-10" width="160" relative="1" as="geometry">
            <mxPoint x="890" y="310" as="sourcePoint" />
            <mxPoint x="660" y="310" as="targetPoint" />
            <mxPoint as="offset" />
          </mxGeometry>
        </mxCell>
        <mxCell id="4JTWccWHWT9R3Sk7rcSR-32" value="&lt;font style=&quot;font-size: 12px;&quot;&gt;9.Return message not found&lt;/font&gt;" style="endArrow=open;endSize=12;dashed=1;html=1;rounded=0;" parent="1" edge="1">
          <mxGeometry x="0.0359" y="-10" width="160" relative="1" as="geometry">
            <mxPoint x="640" y="324.58000000000004" as="sourcePoint" />
            <mxPoint x="350" y="324.58000000000004" as="targetPoint" />
            <mxPoint as="offset" />
          </mxGeometry>
        </mxCell>
        <mxCell id="4JTWccWHWT9R3Sk7rcSR-33" value="&lt;font style=&quot;font-size: 12px;&quot;&gt;10.Return result&lt;/font&gt;" style="endArrow=open;endSize=12;dashed=1;html=1;rounded=0;" parent="1" edge="1">
          <mxGeometry x="0.0359" y="-10" width="160" relative="1" as="geometry">
            <mxPoint x="1445" y="372" as="sourcePoint" />
            <mxPoint x="1199.0000000000002" y="372" as="targetPoint" />
            <mxPoint as="offset" />
          </mxGeometry>
        </mxCell>
        <mxCell id="4JTWccWHWT9R3Sk7rcSR-34" value="&lt;font style=&quot;font-size: 12px;&quot;&gt;11.Return result&lt;/font&gt;" style="endArrow=open;endSize=12;dashed=1;html=1;rounded=0;exitX=0.25;exitY=0.69;exitDx=0;exitDy=0;exitPerimeter=0;" parent="1" edge="1">
          <mxGeometry x="0.0359" y="-10" width="160" relative="1" as="geometry">
            <mxPoint x="1179" y="402.71" as="sourcePoint" />
            <mxPoint x="910" y="402.71" as="targetPoint" />
            <mxPoint as="offset" />
          </mxGeometry>
        </mxCell>
        <mxCell id="4JTWccWHWT9R3Sk7rcSR-35" value="&lt;font style=&quot;font-size: 12px;&quot;&gt;12.Return result&lt;/font&gt;" style="endArrow=open;endSize=12;dashed=1;html=1;rounded=0;" parent="1" edge="1">
          <mxGeometry x="0.0359" y="-10" width="160" relative="1" as="geometry">
            <mxPoint x="890" y="422.71" as="sourcePoint" />
            <mxPoint x="660" y="422.71" as="targetPoint" />
            <mxPoint as="offset" />
          </mxGeometry>
        </mxCell>
        <mxCell id="4JTWccWHWT9R3Sk7rcSR-36" value="&lt;font style=&quot;font-size: 12px;&quot;&gt;13.Return the valid view with the list of student&lt;/font&gt;" style="endArrow=open;endSize=12;dashed=1;html=1;rounded=0;" parent="1" edge="1">
          <mxGeometry x="0.0359" y="-10" width="160" relative="1" as="geometry">
            <mxPoint x="640" y="442.71" as="sourcePoint" />
            <mxPoint x="350" y="442.71" as="targetPoint" />
            <mxPoint as="offset" />
          </mxGeometry>
        </mxCell>
        <mxCell id="4JTWccWHWT9R3Sk7rcSR-37" value="alt view the list of student" style="shape=umlFrame;whiteSpace=wrap;html=1;pointerEvents=0;width=110;height=30;" parent="1" vertex="1">
          <mxGeometry x="110" y="250" width="1380" height="230" as="geometry" />
        </mxCell>
        <mxCell id="4JTWccWHWT9R3Sk7rcSR-39" value="" style="endArrow=none;dashed=1;html=1;rounded=0;exitX=-0.001;exitY=0.419;exitDx=0;exitDy=0;exitPerimeter=0;" parent="1" edge="1">
          <mxGeometry width="50" height="50" relative="1" as="geometry">
            <mxPoint x="108.61999999999989" y="341.9899999999999" as="sourcePoint" />
            <mxPoint x="1490" y="343" as="targetPoint" />
          </mxGeometry>
        </mxCell>
        <mxCell id="4JTWccWHWT9R3Sk7rcSR-44" value="" style="endArrow=none;dashed=1;html=1;rounded=0;" parent="1" edge="1">
          <mxGeometry width="50" height="50" relative="1" as="geometry">
            <mxPoint x="650" y="560" as="sourcePoint" />
            <mxPoint x="649.58" y="450" as="targetPoint" />
          </mxGeometry>
        </mxCell>
        <mxCell id="4JTWccWHWT9R3Sk7rcSR-45" value="&lt;font style=&quot;font-size: 14px;&quot;&gt;[InValid]&lt;/font&gt;" style="text;html=1;align=center;verticalAlign=middle;resizable=0;points=[];autosize=1;strokeColor=none;fillColor=none;" parent="1" vertex="1">
          <mxGeometry x="145" y="298" width="70" height="30" as="geometry" />
        </mxCell>
        <mxCell id="4JTWccWHWT9R3Sk7rcSR-46" value="&lt;font style=&quot;font-size: 14px;&quot;&gt;[Valid]&lt;/font&gt;" style="text;html=1;align=center;verticalAlign=middle;resizable=0;points=[];autosize=1;strokeColor=none;fillColor=none;" parent="1" vertex="1">
          <mxGeometry x="150" y="410" width="60" height="30" as="geometry" />
        </mxCell>
        <mxCell id="4JTWccWHWT9R3Sk7rcSR-47" value="&lt;font style=&quot;font-size: 12px;&quot;&gt;14.Display view&lt;/font&gt;" style="endArrow=open;endSize=12;dashed=1;html=1;rounded=0;" parent="1" target="4JTWccWHWT9R3Sk7rcSR-3" edge="1">
          <mxGeometry x="0.0359" y="-10" width="160" relative="1" as="geometry">
            <mxPoint x="330" y="510" as="sourcePoint" />
            <mxPoint x="170" y="510" as="targetPoint" />
            <mxPoint as="offset" />
          </mxGeometry>
        </mxCell>
      </root>
    </mxGraphModel>
  </diagram>
</mxfile>
